#!OML:ASF H:\Terrain\Patient Classification 1\Takeo\Monday\TakeoMonday.ASF
:FULLY-SPECIFIED
:DEGREES
610
root 17.9041 17.7352 1.12788 -2.71532 -26.017 -3.62548
lowerback 2.79431 7.38655 4.14044
upperback 0.535979 9.96925 0.727258
thorax -0.427922 4.97954 -1.78775
lowerneck -9.28432 -6.63084 -5.90095
upperneck 2.3023 -8.92157 12.9865
head 3.07957 -4.04991 4.37398
rclavicle 4.22169e-014 6.55989e-015
rhumerus 77.2443 45.1072 -48.2826
rradius 62.1381
rwrist -46.8329
rhand -40.7124 22.6727
rfingers 7.12502
rthumb -13.6545 -6.85945
lclavicle 4.22169e-014 6.55989e-015
lhumerus 19.4856 -3.49209 58.4245
lradius 99.3164
lwrist 25.9457
lhand -27.0959 24.6409
lfingers 7.12502
lthumb -0.512726 54.62
rfemur 12.3548 -7.2645 12.9109
rtibia 34.0648
rfoot 3.38766 -35.7051
rtoes 8.0755
lfemur -9.80804 -10.6691 -19.7354
ltibia 30.6508
lfoot -12.3215 0.471806
ltoes -4.01297
611
root 17.9183 17.7307 1.11689 -2.63741 -26.5484 -3.91099
lowerback 2.89975 7.36427 4.53192
upperback 0.639102 9.95211 0.710418
thorax -0.311974 4.97463 -2.01387
lowerneck -10.009 -6.56088 -5.67235
upperneck 2.82868 -8.86665 12.7151
head 3.32568 -3.98819 4.23272
rclavicle 2.75814e-015 4.57205e-015
rhumerus 76.7137 45.1383 -48.0279
rradius 62.4777
rwrist -46.7723
rhand -41.2698 20.0658
rfingers 7.12502
rthumb -14.1916 -9.42946
lclavicle 2.75814e-015 4.57205e-015
lhumerus 18.9109 -4.41346 58.7694
lradius 99.0887
lwrist 25.0517
lhand -29.3166 22.9269
lfingers 7.12502
lthumb -2.65749 52.8901
rfemur 12.387 -7.31184 13.0575
rtibia 33.8292
rfoot 4.10608 -35.6731
rtoes 5.80859
lfemur -9.84392 -10.4246 -19.4226
ltibia 30.824
lfoot -12.5307 0.541646
ltoes -2.87369
612
root 17.9333 17.7299 1.09905 -2.3192 -27.2569 -4.37628
lowerback 2.84028 7.32575 4.97814
upperback 0.667305 9.9085 0.755948
thorax -0.185886 4.95592 -2.18912
lowerneck -10.0993 -6.36483 -5.63515
upperneck 2.85339 -8.60633 12.7087
head 3.32193 -3.85621 4.24292
rclavicle 9.24038e-015 -4.96962e-015
rhumerus 76.0372 45.4079 -48.078
rradius 62.6119
rwrist -47.0422
rhand -41.0869 20.104
rfingers 7.12502
rthumb -14.0153 -9.40354
lclavicle 9.24038e-015 -4.96962e-015
lhumerus 18.2478 -5.18342 59.0645
lradius 98.7662
lwrist 24.2547
lhand -29.8943 22.3262
lfingers 7.12502
lthumb -3.21543 52.2817
rfemur 12.1484 -7.26965 13.3979
rtibia 33.6932
rfoot 4.10066 -35.4297
rtoes 4.08868
lfemur -9.92372 -9.98848 -18.9009
ltibia 30.8403
lfoot -12.6977 0.647031
ltoes -2.16414
613
root 17.9441 17.7392 1.07459 -1.96397 -28.0491 -4.68746
lowerback 2.66509 7.30705 5.11924
upperback 0.724695 9.87443 0.827041
thorax -0.0209353 4.94353 -2.16114
lowerneck -10.3693 -6.15833 -5.40942
upperneck 2.894 -8.3232 12.3208
head 3.32294 -3.71861 4.10297
rclavicle -1.16743e-013 -2.38542e-015
rhumerus 75.502 45.7667 -47.8385
rradius 63.1451
rwrist -46.3789
rhand -41.9069 19.2895
rfingers 7.12502
rthumb -14.8054 -10.1616
lclavicle -1.16743e-013 -2.38542e-015
lhumerus 17.5406 -5.64282 59.6226
lradius 99.038
lwrist 24.5644
lhand -28.5194 23.1779
lfingers 7.12502
lthumb -1.88754 53.1493
rfemur 11.6805 -7.14475 13.6319
rtibia 33.6722
rfoot 2.82192 -35.1942
rtoes 3.85908
lfemur -10.0127 -9.32244 -18.5169
ltibia 30.6959
lfoot -12.6977 0.892531
ltoes -1.86855
614
root 17.9516 17.7431 1.05369 -2.37125 -28.6877 -4.10009
lowerback 2.80005 7.31911 4.52025
upperback 0.888076 9.87748 0.729505
thorax -0.0101584 4.94752 -1.95186
lowerneck -10.7238 -6.10215 -5.28188
upperneck 3.09174 -8.23875 11.8694
head 3.40438 -3.67581 3.94033
rclavicle -2.95537e-014 -9.93923e-015
rhumerus 74.6209 46.0368 -47.6574
rradius 63.7159
rwrist -45.4753
rhand -43.2169 17.5385
rfingers 7.12502
rthumb -16.0672 -11.8154
lclavicle -2.95537e-014 -9.93923e-015
lhumerus 16.8432 -6.38009 60.3907
lradius 99.2801
lwrist 24.7405
lhand -28.2998 23.75
lfingers 7.12502
lthumb -1.67544 53.7232
rfemur 11.6057 -7.15303 12.8739
rtibia 33.7275
rfoot 1.73827 -34.845
rtoes 3.34381
lfemur -9.80499 -8.90268 -19.0752
ltibia 30.4995
lfoot -12.3905 1.30618
ltoes -2.6301
615
root 17.9608 17.7376 1.03455 -2.90162 -29.3647 -3.35225
lowerback 3.05414 7.40926 3.86529
upperback 0.98127 9.98945 0.595528
thorax -0.134605 5.00161 -1.77385
lowerneck -10.5088 -6.01498 -5.7333
upperneck 2.82168 -8.06037 12.1155
head 3.30289 -3.59905 4.11034
rclavicle 1.58748e-014 0
rhumerus 73.1804 46.2407 -47.8663
rradius 64.0873
rwrist -45.2215
rhand -43.2627 17.3838
rfingers 7.12502
rthumb -16.1113 -11.9665
lclavicle 1.58748e-014 0
lhumerus 16.1332 -7.45915 61.2179
lradius 99.3703
lwrist 24.4517
lhand -28.8737 24.1796
lfingers 7.12502
lthumb -2.22971 54.1477
rfemur 11.5497 -7.16141 11.9314
rtibia 33.8054
rfoot 2.36521 -34.378
rtoes 1.26268
lfemur -9.54246 -8.57398 -19.7881
ltibia 30.3208
lfoot -12.2091 1.65506
ltoes -4.05126
616
root 17.9739 17.734 1.00594 -2.90662 -30.1715 -3.35612
lowerback 3.35437 7.47733 3.81368
upperback 0.99635 10.0915 0.608095
thorax -0.290374 5.0494 -1.77816
lowerneck -10.9162 -5.91604 -5.88399
upperneck 3.01154 -7.90788 12.0777
head 3.41654 -3.50848 4.12399
rclavicle -1.40531e-013 4.77083e-015
rhumerus 72.1545 46.3758 -47.8888
rradius 64.2859
rwrist -45.0482
rhand -42.7023 17.8619
rfingers 7.12502
rthumb -15.5717 -11.5312
lclavicle -1.40531e-013 4.77083e-015
lhumerus 15.3808 -8.47519 61.9254
lradius 99.5189
lwrist 24.2406
lhand -29.4632 23.8041
lfingers 7.12502
lthumb -2.79902 53.7655
rfemur 11.2717 -6.97985 11.8904
rtibia 33.8169
rfoot 2.93714 -34.5158
rtoes 0.950185
lfemur -9.4043 -8.06229 -19.7248
ltibia 30.1954
lfoot -12.3149 1.75362
ltoes -2.66963
